%TF.GenerationSoftware,KiCad,Pcbnew,10.0.6*%
%TF.CreationDate,2026-10-02T19:06:43-04:00*%
%TF.ProjectId,Room Sensor,526f6f6d-2053-4656-9e73-6f722e6b6963,rev?*%
%TF.SameCoordinates,Original*%
%TF.FileFunction,Copper,L1,Top*%
%TF.FilePolarity,Positive*%
%FSLAX46Y46*%
G04 Gerber Fmt 4.6, Leading zero omitted, Abs format (unit mm)*
G04 Created by KiCad (PCBNEW 10.0.6) date 2026-10-02 19:06:43*
%MOMM*%
%LPD*%
G01*
G04 APERTURE LIST*
%TA.AperFunction,ComponentPad*%
%ADD10C,2.200000*%
%TD*%
%TA.AperFunction,ComponentPad*%
%ADD11R,1.700000X1.700000*%
%TD*%
%TA.AperFunction,ComponentPad*%
%ADD12C,1.700000*%
%TD*%
%TA.AperFunction,ComponentPad*%
%ADD13C,1.348000*%
%TD*%
%TA.AperFunction,ComponentPad*%
%ADD14C,1.600000*%
%TD*%
%TA.AperFunction,ComponentPad*%
%ADD15C,1.800000*%
%TD*%
%TA.AperFunction,ComponentPad*%
%ADD16R,2.000000X2.000000*%
%TD*%
%TA.AperFunction,ComponentPad*%
%ADD17C,2.000000*%
%TD*%
%TA.AperFunction,ViaPad*%
%ADD18C,1.000000*%
%TD*%
%TA.AperFunction,Conductor*%
%ADD19C,0.800000*%
%TD*%
%TA.AperFunction,Conductor*%
%ADD20C,0.440000*%
%TD*%
%TA.AperFunction,Conductor*%
%ADD21C,0.600000*%
%TD*%
G04 APERTURE END LIST*
D10*
%TO.P,SW4,1,1_1*%
%TO.N,/BTN_BACK*%
X97350000Y-113460000D03*
%TO.P,SW4,2,2_2*%
%TO.N,/GND*%
X91000000Y-116000000D03*
%TD*%
D11*
%TO.P,TFT1,1,Pin_1_1*%
%TO.N,/RST*%
X138660000Y-64000000D03*
D12*
%TO.P,TFT1,2,Pin_2_2*%
%TO.N,/CS*%
X136120000Y-64000000D03*
%TO.P,TFT1,3,Pin_3_3*%
%TO.N,/DC*%
X133580000Y-64000000D03*
%TO.P,TFT1,4,Pin_4_4*%
%TO.N,/TFT_SDA*%
X131040000Y-64000000D03*
%TO.P,TFT1,5,Pin_5_5*%
%TO.N,/TFT_SCL*%
X128500000Y-64000000D03*
%TO.P,TFT1,6,Pin_6_6*%
%TO.N,/GND*%
X125960000Y-64000000D03*
%TO.P,TFT1,7,Pin_7_7*%
%TO.N,/VIN (5.0v)*%
X123420000Y-64000000D03*
%TD*%
D10*
%TO.P,SW3,1,1_1*%
%TO.N,/BTN_SELECT*%
X97350000Y-94100000D03*
%TO.P,SW3,2,2_2*%
%TO.N,/GND*%
X91000000Y-96640000D03*
%TD*%
%TO.P,SW2,1,1_1*%
%TO.N,/BTN_DOWN*%
X97350000Y-74960000D03*
%TO.P,SW2,2,2_2*%
%TO.N,/GND*%
X91000000Y-77500000D03*
%TD*%
D13*
%TO.P,U2,0,GPIO0_0*%
%TO.N,/TFT_SCL*%
X128380000Y-123620000D03*
%TO.P,U2,1,GPIO1_1*%
%TO.N,/TFT_SDA*%
X128380000Y-126160000D03*
%TO.P,U2,2,GPIO2_2*%
%TO.N,/DC*%
X128380000Y-128700000D03*
%TO.P,U2,3,GPIO3_3*%
%TO.N,/SCL*%
X128380000Y-131240000D03*
%TO.P,U2,3.3,3V3_3.3*%
%TO.N,/VCC (3.3v)*%
X128380000Y-136320000D03*
%TO.P,U2,4,GPIO4_4*%
%TO.N,/SDA*%
X128380000Y-133780000D03*
%TO.P,U2,5,GPIO5_5*%
%TO.N,/BTN_UP*%
X143620000Y-141400000D03*
%TO.P,U2,5V,5V_5V*%
%TO.N,/VIN (5.0v)*%
X128380000Y-141400000D03*
%TO.P,U2,6,GPIO6_6*%
%TO.N,/CS*%
X143620000Y-138860000D03*
%TO.P,U2,7,GPIO7_7*%
%TO.N,/RST*%
X143620000Y-136320000D03*
%TO.P,U2,8,GPIO8_8*%
%TO.N,unconnected-(U2-GPIO8-Pad8)*%
X143620000Y-133780000D03*
%TO.P,U2,9,GPIO9_9*%
%TO.N,/BTN_SELECT*%
X143620000Y-131240000D03*
%TO.P,U2,10,GPIO10_10*%
%TO.N,/BTN_BACK*%
X143620000Y-128700000D03*
%TO.P,U2,20,GPIO20_20*%
%TO.N,/BUZZER*%
X143620000Y-126160000D03*
%TO.P,U2,21,GPIO21_21*%
%TO.N,/BTN_DOWN*%
X143620000Y-123620000D03*
%TO.P,U2,G,GND_G*%
%TO.N,/GND*%
X128380000Y-138860000D03*
%TD*%
D10*
%TO.P,SW1,1,1_1*%
%TO.N,/BTN_UP*%
X97350000Y-55960000D03*
%TO.P,SW1,2,2_2*%
%TO.N,/GND*%
X91000000Y-58500000D03*
%TD*%
D11*
%TO.P,SPS30,1,Pin_1_1*%
%TO.N,/VIN (5.0v)*%
X109000000Y-65000000D03*
D12*
%TO.P,SPS30,2,Pin_2_2*%
%TO.N,/SDA*%
X109000000Y-67540000D03*
%TO.P,SPS30,3,Pin_3_3*%
%TO.N,/SCL*%
X109000000Y-70080000D03*
%TO.P,SPS30,4,Pin_4_4*%
%TO.N,/GND*%
X109000000Y-72620000D03*
%TO.P,SPS30,5,Pin_5_5*%
X109000000Y-75160000D03*
%TD*%
D14*
%TO.P,R1,1*%
%TO.N,/VCC (3.3v)*%
X117000000Y-134000000D03*
%TO.P,R1,2*%
%TO.N,/DC*%
X124620000Y-134000000D03*
%TD*%
D15*
%TO.P,JP1,1*%
%TO.N,/SENSOR_3V3*%
X105500000Y-112500000D03*
%TO.P,JP1,2*%
%TO.N,/VCC (3.3v)*%
X118200000Y-112500000D03*
%TD*%
D11*
%TO.P,SGP41,1,Pin_1_1*%
%TO.N,/SDA*%
X109500000Y-125000000D03*
D12*
%TO.P,SGP41,2,Pin_2_2*%
%TO.N,/SCL*%
X109500000Y-122460000D03*
%TO.P,SGP41,3,Pin_3_3*%
%TO.N,/GND*%
X109500000Y-119920000D03*
%TO.P,SGP41,4,Pin_4_4*%
%TO.N,unconnected-(SGP41-Pin_4-Pad4)*%
X109500000Y-117380000D03*
%TO.P,SGP41,5,Pin_5_5*%
%TO.N,/SENSOR_3V3*%
X109500000Y-114840000D03*
%TD*%
D11*
%TO.P,SHT40,1,Pin_1_1*%
%TO.N,/SENSOR_3V3*%
X88270000Y-132000000D03*
D12*
%TO.P,SHT40,2,Pin_2_2*%
%TO.N,/GND*%
X88270000Y-134540000D03*
%TO.P,SHT40,3,Pin_3_3*%
%TO.N,/SCL*%
X88270000Y-137080000D03*
%TO.P,SHT40,4,Pin_4_4*%
%TO.N,/SDA*%
X88270000Y-139620000D03*
%TD*%
D16*
%TO.P,BZ1,1*%
%TO.N,/BUZZER*%
X136000000Y-100000000D03*
D17*
%TO.P,BZ1,2*%
%TO.N,/GND*%
X143600000Y-100000000D03*
%TD*%
D11*
%TO.P,SCD40,1*%
%TO.N,/SENSOR_3V3*%
X97000000Y-132000000D03*
D12*
%TO.P,SCD40,2*%
%TO.N,/GND*%
X97000000Y-134540000D03*
%TO.P,SCD40,3*%
%TO.N,/SCL*%
X97000000Y-137080000D03*
%TO.P,SCD40,4*%
%TO.N,/SDA*%
X97000000Y-139620000D03*
%TD*%
D11*
%TO.P,J_PWR,1*%
%TO.N,/USB_VBUS_RAW*%
X110000000Y-145000000D03*
D12*
%TO.P,J_PWR,2*%
X112540000Y-145000000D03*
%TO.P,J_PWR,3*%
%TO.N,/VIN (5.0v)*%
X115080000Y-145000000D03*
%TO.P,J_PWR,4*%
%TO.N,/GND*%
X117620000Y-145000000D03*
%TD*%
D18*
%TO.N,/GND*%
X117500000Y-75500000D03*
%TO.N,/RST*%
X137660000Y-66000000D03*
%TO.N,/CS*%
X135120000Y-66000000D03*
X149000000Y-80000000D03*
%TO.N,/DC*%
X132580000Y-66000000D03*
%TO.N,/TFT_SDA*%
X130039999Y-66000000D03*
%TO.N,/TFT_SCL*%
X127500000Y-66000000D03*
%TO.N,/VIN (5.0v)*%
X122420000Y-66000000D03*
%TD*%
%TO.N,/BTN_BACK*%
D19*
X151000000Y-128699999D02*
X143620000Y-128699999D01*
X97350000Y-113460000D02*
X101000000Y-109800000D01*
X151000000Y-106000000D02*
X151000000Y-128699999D01*
X101000000Y-109800000D02*
X101000000Y-106000000D01*
X101000000Y-106000000D02*
X151000000Y-106000000D01*
%TO.N,/GND*%
X88270000Y-134540000D02*
X97000000Y-134540000D01*
X105000000Y-119920000D02*
X109500000Y-119920000D01*
X122600000Y-68360000D02*
X124960000Y-66000000D01*
D20*
X97000000Y-134540000D02*
X100000000Y-134540000D01*
D21*
X125960000Y-64000000D02*
X124960000Y-66000000D01*
D19*
X122600000Y-96400000D02*
X122600000Y-68360000D01*
D20*
X100000000Y-134540000D02*
X105000000Y-119920000D01*
X105000000Y-119920000D02*
X109500000Y-119920000D01*
D19*
X117500000Y-75500000D02*
X122600000Y-68360000D01*
X140000000Y-96400000D02*
X122600000Y-96400000D01*
X122600000Y-68360000D02*
X109000000Y-75160000D01*
X143600000Y-100000000D02*
X140000000Y-96400000D01*
%TO.N,/RST*%
D21*
X138660000Y-64000000D02*
X137660000Y-66000000D01*
%TO.N,/CS*%
X135120000Y-71000000D02*
X142000000Y-75000000D01*
X135120000Y-66000000D02*
X135120000Y-71000000D01*
X142000000Y-75000000D02*
X149000000Y-80000000D01*
X136120000Y-64000000D02*
X135120000Y-66000000D01*
%TO.N,/DC*%
X133580000Y-64000000D02*
X132580000Y-66000000D01*
%TO.N,/TFT_SDA*%
X131039999Y-64000000D02*
X130039999Y-66000000D01*
%TO.N,/TFT_SCL*%
X128500000Y-64000000D02*
X127500000Y-66000000D01*
%TO.N,/VIN (5.0v)*%
X123420000Y-64000000D02*
X122420000Y-66000000D01*
%TO.N,/BTN_SELECT*%
D19*
X97350000Y-94100000D02*
X94000000Y-91000000D01*
X85000000Y-141000000D02*
X87000000Y-142500000D01*
X94000000Y-91000000D02*
X85000000Y-91000000D01*
X102000000Y-146500000D02*
X150000000Y-146500000D01*
X85000000Y-91000000D02*
X85000000Y-141000000D01*
X150000000Y-146500000D02*
X150000000Y-131240000D01*
X98000000Y-142500000D02*
X102000000Y-146500000D01*
X87000000Y-142500000D02*
X98000000Y-142500000D01*
X150000000Y-131240000D02*
X143620000Y-131240000D01*
%TO.N,/SCL*%
D20*
X97000000Y-137080000D02*
X100000000Y-137080000D01*
D19*
X109500000Y-122460000D02*
X128380000Y-131240000D01*
X105000000Y-122460000D02*
X109500000Y-122460000D01*
D20*
X105000000Y-122460000D02*
X109500000Y-122460000D01*
D19*
X88270000Y-137080000D02*
X97000000Y-137080000D01*
D20*
X100000000Y-137080000D02*
X105000000Y-122460000D01*
%TO.N,/SDA*%
X105000000Y-125000000D02*
X109500000Y-125000000D01*
X97000000Y-139620000D02*
X100000000Y-139620000D01*
D19*
X105000000Y-125000000D02*
X109500000Y-125000000D01*
X109500000Y-125000000D02*
X128380000Y-133780000D01*
D20*
X100000000Y-139620000D02*
X105000000Y-125000000D01*
D19*
X88270000Y-139620000D02*
X97000000Y-139620000D01*
%TO.N,/SENSOR_3V3*%
X105500000Y-112500000D02*
X107500000Y-114500000D01*
X107500000Y-114500000D02*
X109500000Y-114840000D01*
%TD*%
M02*
