%TF.GenerationSoftware,KiCad,Pcbnew,10.0.6*%
%TF.CreationDate,2026-10-02T19:06:43-04:00*%
%TF.ProjectId,Room Sensor,526f6f6d-2053-4656-9e73-6f722e6b6963,rev?*%
%TF.SameCoordinates,Original*%
%TF.FileFunction,Legend,Top*%
%TF.FilePolarity,Positive*%
%FSLAX46Y46*%
G04 Gerber Fmt 4.6, Leading zero omitted, Abs format (unit mm)*
G04 Created by KiCad (PCBNEW 10.0.6) date 2026-10-02 19:06:43*
%MOMM*%
%LPD*%
G01*
G04 APERTURE LIST*
%ADD10C,0.150000*%
%ADD11C,0.120000*%
%ADD12C,0.127000*%
G04 APERTURE END LIST*
D10*
X93476667Y-111073200D02*
X93619524Y-111120819D01*
X93619524Y-111120819D02*
X93857619Y-111120819D01*
X93857619Y-111120819D02*
X93952857Y-111073200D01*
X93952857Y-111073200D02*
X94000476Y-111025580D01*
X94000476Y-111025580D02*
X94048095Y-110930342D01*
X94048095Y-110930342D02*
X94048095Y-110835104D01*
X94048095Y-110835104D02*
X94000476Y-110739866D01*
X94000476Y-110739866D02*
X93952857Y-110692247D01*
X93952857Y-110692247D02*
X93857619Y-110644628D01*
X93857619Y-110644628D02*
X93667143Y-110597009D01*
X93667143Y-110597009D02*
X93571905Y-110549390D01*
X93571905Y-110549390D02*
X93524286Y-110501771D01*
X93524286Y-110501771D02*
X93476667Y-110406533D01*
X93476667Y-110406533D02*
X93476667Y-110311295D01*
X93476667Y-110311295D02*
X93524286Y-110216057D01*
X93524286Y-110216057D02*
X93571905Y-110168438D01*
X93571905Y-110168438D02*
X93667143Y-110120819D01*
X93667143Y-110120819D02*
X93905238Y-110120819D01*
X93905238Y-110120819D02*
X94048095Y-110168438D01*
X94381429Y-110120819D02*
X94619524Y-111120819D01*
X94619524Y-111120819D02*
X94810000Y-110406533D01*
X94810000Y-110406533D02*
X95000476Y-111120819D01*
X95000476Y-111120819D02*
X95238572Y-110120819D01*
X96048095Y-110454152D02*
X96048095Y-111120819D01*
X95810000Y-110073200D02*
X95571905Y-110787485D01*
X95571905Y-110787485D02*
X96190952Y-110787485D01*
X140494819Y-65571428D02*
X140494819Y-65000000D01*
X141494819Y-65285714D02*
X140494819Y-65285714D01*
X140971009Y-64333333D02*
X140971009Y-64666666D01*
X141494819Y-64666666D02*
X140494819Y-64666666D01*
X140494819Y-64666666D02*
X140494819Y-64190476D01*
X140494819Y-63952380D02*
X140494819Y-63380952D01*
X141494819Y-63666666D02*
X140494819Y-63666666D01*
X141494819Y-62523809D02*
X141494819Y-63095237D01*
X141494819Y-62809523D02*
X140494819Y-62809523D01*
X140494819Y-62809523D02*
X140637676Y-62904761D01*
X140637676Y-62904761D02*
X140732914Y-62999999D01*
X140732914Y-62999999D02*
X140780533Y-63095237D01*
X93476667Y-91713200D02*
X93619524Y-91760819D01*
X93619524Y-91760819D02*
X93857619Y-91760819D01*
X93857619Y-91760819D02*
X93952857Y-91713200D01*
X93952857Y-91713200D02*
X94000476Y-91665580D01*
X94000476Y-91665580D02*
X94048095Y-91570342D01*
X94048095Y-91570342D02*
X94048095Y-91475104D01*
X94048095Y-91475104D02*
X94000476Y-91379866D01*
X94000476Y-91379866D02*
X93952857Y-91332247D01*
X93952857Y-91332247D02*
X93857619Y-91284628D01*
X93857619Y-91284628D02*
X93667143Y-91237009D01*
X93667143Y-91237009D02*
X93571905Y-91189390D01*
X93571905Y-91189390D02*
X93524286Y-91141771D01*
X93524286Y-91141771D02*
X93476667Y-91046533D01*
X93476667Y-91046533D02*
X93476667Y-90951295D01*
X93476667Y-90951295D02*
X93524286Y-90856057D01*
X93524286Y-90856057D02*
X93571905Y-90808438D01*
X93571905Y-90808438D02*
X93667143Y-90760819D01*
X93667143Y-90760819D02*
X93905238Y-90760819D01*
X93905238Y-90760819D02*
X94048095Y-90808438D01*
X94381429Y-90760819D02*
X94619524Y-91760819D01*
X94619524Y-91760819D02*
X94810000Y-91046533D01*
X94810000Y-91046533D02*
X95000476Y-91760819D01*
X95000476Y-91760819D02*
X95238572Y-90760819D01*
X95524286Y-90760819D02*
X96143333Y-90760819D01*
X96143333Y-90760819D02*
X95810000Y-91141771D01*
X95810000Y-91141771D02*
X95952857Y-91141771D01*
X95952857Y-91141771D02*
X96048095Y-91189390D01*
X96048095Y-91189390D02*
X96095714Y-91237009D01*
X96095714Y-91237009D02*
X96143333Y-91332247D01*
X96143333Y-91332247D02*
X96143333Y-91570342D01*
X96143333Y-91570342D02*
X96095714Y-91665580D01*
X96095714Y-91665580D02*
X96048095Y-91713200D01*
X96048095Y-91713200D02*
X95952857Y-91760819D01*
X95952857Y-91760819D02*
X95667143Y-91760819D01*
X95667143Y-91760819D02*
X95571905Y-91713200D01*
X95571905Y-91713200D02*
X95524286Y-91665580D01*
X93476667Y-72573200D02*
X93619524Y-72620819D01*
X93619524Y-72620819D02*
X93857619Y-72620819D01*
X93857619Y-72620819D02*
X93952857Y-72573200D01*
X93952857Y-72573200D02*
X94000476Y-72525580D01*
X94000476Y-72525580D02*
X94048095Y-72430342D01*
X94048095Y-72430342D02*
X94048095Y-72335104D01*
X94048095Y-72335104D02*
X94000476Y-72239866D01*
X94000476Y-72239866D02*
X93952857Y-72192247D01*
X93952857Y-72192247D02*
X93857619Y-72144628D01*
X93857619Y-72144628D02*
X93667143Y-72097009D01*
X93667143Y-72097009D02*
X93571905Y-72049390D01*
X93571905Y-72049390D02*
X93524286Y-72001771D01*
X93524286Y-72001771D02*
X93476667Y-71906533D01*
X93476667Y-71906533D02*
X93476667Y-71811295D01*
X93476667Y-71811295D02*
X93524286Y-71716057D01*
X93524286Y-71716057D02*
X93571905Y-71668438D01*
X93571905Y-71668438D02*
X93667143Y-71620819D01*
X93667143Y-71620819D02*
X93905238Y-71620819D01*
X93905238Y-71620819D02*
X94048095Y-71668438D01*
X94381429Y-71620819D02*
X94619524Y-72620819D01*
X94619524Y-72620819D02*
X94810000Y-71906533D01*
X94810000Y-71906533D02*
X95000476Y-72620819D01*
X95000476Y-72620819D02*
X95238572Y-71620819D01*
X95571905Y-71716057D02*
X95619524Y-71668438D01*
X95619524Y-71668438D02*
X95714762Y-71620819D01*
X95714762Y-71620819D02*
X95952857Y-71620819D01*
X95952857Y-71620819D02*
X96048095Y-71668438D01*
X96048095Y-71668438D02*
X96095714Y-71716057D01*
X96095714Y-71716057D02*
X96143333Y-71811295D01*
X96143333Y-71811295D02*
X96143333Y-71906533D01*
X96143333Y-71906533D02*
X96095714Y-72049390D01*
X96095714Y-72049390D02*
X95524286Y-72620819D01*
X95524286Y-72620819D02*
X96143333Y-72620819D01*
X140953095Y-144607319D02*
X140953095Y-145416842D01*
X140953095Y-145416842D02*
X141000714Y-145512080D01*
X141000714Y-145512080D02*
X141048333Y-145559700D01*
X141048333Y-145559700D02*
X141143571Y-145607319D01*
X141143571Y-145607319D02*
X141334047Y-145607319D01*
X141334047Y-145607319D02*
X141429285Y-145559700D01*
X141429285Y-145559700D02*
X141476904Y-145512080D01*
X141476904Y-145512080D02*
X141524523Y-145416842D01*
X141524523Y-145416842D02*
X141524523Y-144607319D01*
X141953095Y-144702557D02*
X142000714Y-144654938D01*
X142000714Y-144654938D02*
X142095952Y-144607319D01*
X142095952Y-144607319D02*
X142334047Y-144607319D01*
X142334047Y-144607319D02*
X142429285Y-144654938D01*
X142429285Y-144654938D02*
X142476904Y-144702557D01*
X142476904Y-144702557D02*
X142524523Y-144797795D01*
X142524523Y-144797795D02*
X142524523Y-144893033D01*
X142524523Y-144893033D02*
X142476904Y-145035890D01*
X142476904Y-145035890D02*
X141905476Y-145607319D01*
X141905476Y-145607319D02*
X142524523Y-145607319D01*
X93476667Y-53573200D02*
X93619524Y-53620819D01*
X93619524Y-53620819D02*
X93857619Y-53620819D01*
X93857619Y-53620819D02*
X93952857Y-53573200D01*
X93952857Y-53573200D02*
X94000476Y-53525580D01*
X94000476Y-53525580D02*
X94048095Y-53430342D01*
X94048095Y-53430342D02*
X94048095Y-53335104D01*
X94048095Y-53335104D02*
X94000476Y-53239866D01*
X94000476Y-53239866D02*
X93952857Y-53192247D01*
X93952857Y-53192247D02*
X93857619Y-53144628D01*
X93857619Y-53144628D02*
X93667143Y-53097009D01*
X93667143Y-53097009D02*
X93571905Y-53049390D01*
X93571905Y-53049390D02*
X93524286Y-53001771D01*
X93524286Y-53001771D02*
X93476667Y-52906533D01*
X93476667Y-52906533D02*
X93476667Y-52811295D01*
X93476667Y-52811295D02*
X93524286Y-52716057D01*
X93524286Y-52716057D02*
X93571905Y-52668438D01*
X93571905Y-52668438D02*
X93667143Y-52620819D01*
X93667143Y-52620819D02*
X93905238Y-52620819D01*
X93905238Y-52620819D02*
X94048095Y-52668438D01*
X94381429Y-52620819D02*
X94619524Y-53620819D01*
X94619524Y-53620819D02*
X94810000Y-52906533D01*
X94810000Y-52906533D02*
X95000476Y-53620819D01*
X95000476Y-53620819D02*
X95238572Y-52620819D01*
X96143333Y-53620819D02*
X95571905Y-53620819D01*
X95857619Y-53620819D02*
X95857619Y-52620819D01*
X95857619Y-52620819D02*
X95762381Y-52763676D01*
X95762381Y-52763676D02*
X95667143Y-52858914D01*
X95667143Y-52858914D02*
X95571905Y-52906533D01*
X106785714Y-63027200D02*
X106928571Y-63074819D01*
X106928571Y-63074819D02*
X107166666Y-63074819D01*
X107166666Y-63074819D02*
X107261904Y-63027200D01*
X107261904Y-63027200D02*
X107309523Y-62979580D01*
X107309523Y-62979580D02*
X107357142Y-62884342D01*
X107357142Y-62884342D02*
X107357142Y-62789104D01*
X107357142Y-62789104D02*
X107309523Y-62693866D01*
X107309523Y-62693866D02*
X107261904Y-62646247D01*
X107261904Y-62646247D02*
X107166666Y-62598628D01*
X107166666Y-62598628D02*
X106976190Y-62551009D01*
X106976190Y-62551009D02*
X106880952Y-62503390D01*
X106880952Y-62503390D02*
X106833333Y-62455771D01*
X106833333Y-62455771D02*
X106785714Y-62360533D01*
X106785714Y-62360533D02*
X106785714Y-62265295D01*
X106785714Y-62265295D02*
X106833333Y-62170057D01*
X106833333Y-62170057D02*
X106880952Y-62122438D01*
X106880952Y-62122438D02*
X106976190Y-62074819D01*
X106976190Y-62074819D02*
X107214285Y-62074819D01*
X107214285Y-62074819D02*
X107357142Y-62122438D01*
X107785714Y-63074819D02*
X107785714Y-62074819D01*
X107785714Y-62074819D02*
X108166666Y-62074819D01*
X108166666Y-62074819D02*
X108261904Y-62122438D01*
X108261904Y-62122438D02*
X108309523Y-62170057D01*
X108309523Y-62170057D02*
X108357142Y-62265295D01*
X108357142Y-62265295D02*
X108357142Y-62408152D01*
X108357142Y-62408152D02*
X108309523Y-62503390D01*
X108309523Y-62503390D02*
X108261904Y-62551009D01*
X108261904Y-62551009D02*
X108166666Y-62598628D01*
X108166666Y-62598628D02*
X107785714Y-62598628D01*
X108738095Y-63027200D02*
X108880952Y-63074819D01*
X108880952Y-63074819D02*
X109119047Y-63074819D01*
X109119047Y-63074819D02*
X109214285Y-63027200D01*
X109214285Y-63027200D02*
X109261904Y-62979580D01*
X109261904Y-62979580D02*
X109309523Y-62884342D01*
X109309523Y-62884342D02*
X109309523Y-62789104D01*
X109309523Y-62789104D02*
X109261904Y-62693866D01*
X109261904Y-62693866D02*
X109214285Y-62646247D01*
X109214285Y-62646247D02*
X109119047Y-62598628D01*
X109119047Y-62598628D02*
X108928571Y-62551009D01*
X108928571Y-62551009D02*
X108833333Y-62503390D01*
X108833333Y-62503390D02*
X108785714Y-62455771D01*
X108785714Y-62455771D02*
X108738095Y-62360533D01*
X108738095Y-62360533D02*
X108738095Y-62265295D01*
X108738095Y-62265295D02*
X108785714Y-62170057D01*
X108785714Y-62170057D02*
X108833333Y-62122438D01*
X108833333Y-62122438D02*
X108928571Y-62074819D01*
X108928571Y-62074819D02*
X109166666Y-62074819D01*
X109166666Y-62074819D02*
X109309523Y-62122438D01*
X109642857Y-62074819D02*
X110261904Y-62074819D01*
X110261904Y-62074819D02*
X109928571Y-62455771D01*
X109928571Y-62455771D02*
X110071428Y-62455771D01*
X110071428Y-62455771D02*
X110166666Y-62503390D01*
X110166666Y-62503390D02*
X110214285Y-62551009D01*
X110214285Y-62551009D02*
X110261904Y-62646247D01*
X110261904Y-62646247D02*
X110261904Y-62884342D01*
X110261904Y-62884342D02*
X110214285Y-62979580D01*
X110214285Y-62979580D02*
X110166666Y-63027200D01*
X110166666Y-63027200D02*
X110071428Y-63074819D01*
X110071428Y-63074819D02*
X109785714Y-63074819D01*
X109785714Y-63074819D02*
X109690476Y-63027200D01*
X109690476Y-63027200D02*
X109642857Y-62979580D01*
X110880952Y-62074819D02*
X110976190Y-62074819D01*
X110976190Y-62074819D02*
X111071428Y-62122438D01*
X111071428Y-62122438D02*
X111119047Y-62170057D01*
X111119047Y-62170057D02*
X111166666Y-62265295D01*
X111166666Y-62265295D02*
X111214285Y-62455771D01*
X111214285Y-62455771D02*
X111214285Y-62693866D01*
X111214285Y-62693866D02*
X111166666Y-62884342D01*
X111166666Y-62884342D02*
X111119047Y-62979580D01*
X111119047Y-62979580D02*
X111071428Y-63027200D01*
X111071428Y-63027200D02*
X110976190Y-63074819D01*
X110976190Y-63074819D02*
X110880952Y-63074819D01*
X110880952Y-63074819D02*
X110785714Y-63027200D01*
X110785714Y-63027200D02*
X110738095Y-62979580D01*
X110738095Y-62979580D02*
X110690476Y-62884342D01*
X110690476Y-62884342D02*
X110642857Y-62693866D01*
X110642857Y-62693866D02*
X110642857Y-62455771D01*
X110642857Y-62455771D02*
X110690476Y-62265295D01*
X110690476Y-62265295D02*
X110738095Y-62170057D01*
X110738095Y-62170057D02*
X110785714Y-62122438D01*
X110785714Y-62122438D02*
X110880952Y-62074819D01*
X120643333Y-132084819D02*
X120310000Y-131608628D01*
X120071905Y-132084819D02*
X120071905Y-131084819D01*
X120071905Y-131084819D02*
X120452857Y-131084819D01*
X120452857Y-131084819D02*
X120548095Y-131132438D01*
X120548095Y-131132438D02*
X120595714Y-131180057D01*
X120595714Y-131180057D02*
X120643333Y-131275295D01*
X120643333Y-131275295D02*
X120643333Y-131418152D01*
X120643333Y-131418152D02*
X120595714Y-131513390D01*
X120595714Y-131513390D02*
X120548095Y-131561009D01*
X120548095Y-131561009D02*
X120452857Y-131608628D01*
X120452857Y-131608628D02*
X120071905Y-131608628D01*
X121595714Y-132084819D02*
X121024286Y-132084819D01*
X121310000Y-132084819D02*
X121310000Y-131084819D01*
X121310000Y-131084819D02*
X121214762Y-131227676D01*
X121214762Y-131227676D02*
X121119524Y-131322914D01*
X121119524Y-131322914D02*
X121024286Y-131370533D01*
X111016666Y-109954819D02*
X111016666Y-110669104D01*
X111016666Y-110669104D02*
X110969047Y-110811961D01*
X110969047Y-110811961D02*
X110873809Y-110907200D01*
X110873809Y-110907200D02*
X110730952Y-110954819D01*
X110730952Y-110954819D02*
X110635714Y-110954819D01*
X111492857Y-110954819D02*
X111492857Y-109954819D01*
X111492857Y-109954819D02*
X111873809Y-109954819D01*
X111873809Y-109954819D02*
X111969047Y-110002438D01*
X111969047Y-110002438D02*
X112016666Y-110050057D01*
X112016666Y-110050057D02*
X112064285Y-110145295D01*
X112064285Y-110145295D02*
X112064285Y-110288152D01*
X112064285Y-110288152D02*
X112016666Y-110383390D01*
X112016666Y-110383390D02*
X111969047Y-110431009D01*
X111969047Y-110431009D02*
X111873809Y-110478628D01*
X111873809Y-110478628D02*
X111492857Y-110478628D01*
X113016666Y-110954819D02*
X112445238Y-110954819D01*
X112730952Y-110954819D02*
X112730952Y-109954819D01*
X112730952Y-109954819D02*
X112635714Y-110097676D01*
X112635714Y-110097676D02*
X112540476Y-110192914D01*
X112540476Y-110192914D02*
X112445238Y-110240533D01*
X107261905Y-127787200D02*
X107404762Y-127834819D01*
X107404762Y-127834819D02*
X107642857Y-127834819D01*
X107642857Y-127834819D02*
X107738095Y-127787200D01*
X107738095Y-127787200D02*
X107785714Y-127739580D01*
X107785714Y-127739580D02*
X107833333Y-127644342D01*
X107833333Y-127644342D02*
X107833333Y-127549104D01*
X107833333Y-127549104D02*
X107785714Y-127453866D01*
X107785714Y-127453866D02*
X107738095Y-127406247D01*
X107738095Y-127406247D02*
X107642857Y-127358628D01*
X107642857Y-127358628D02*
X107452381Y-127311009D01*
X107452381Y-127311009D02*
X107357143Y-127263390D01*
X107357143Y-127263390D02*
X107309524Y-127215771D01*
X107309524Y-127215771D02*
X107261905Y-127120533D01*
X107261905Y-127120533D02*
X107261905Y-127025295D01*
X107261905Y-127025295D02*
X107309524Y-126930057D01*
X107309524Y-126930057D02*
X107357143Y-126882438D01*
X107357143Y-126882438D02*
X107452381Y-126834819D01*
X107452381Y-126834819D02*
X107690476Y-126834819D01*
X107690476Y-126834819D02*
X107833333Y-126882438D01*
X108785714Y-126882438D02*
X108690476Y-126834819D01*
X108690476Y-126834819D02*
X108547619Y-126834819D01*
X108547619Y-126834819D02*
X108404762Y-126882438D01*
X108404762Y-126882438D02*
X108309524Y-126977676D01*
X108309524Y-126977676D02*
X108261905Y-127072914D01*
X108261905Y-127072914D02*
X108214286Y-127263390D01*
X108214286Y-127263390D02*
X108214286Y-127406247D01*
X108214286Y-127406247D02*
X108261905Y-127596723D01*
X108261905Y-127596723D02*
X108309524Y-127691961D01*
X108309524Y-127691961D02*
X108404762Y-127787200D01*
X108404762Y-127787200D02*
X108547619Y-127834819D01*
X108547619Y-127834819D02*
X108642857Y-127834819D01*
X108642857Y-127834819D02*
X108785714Y-127787200D01*
X108785714Y-127787200D02*
X108833333Y-127739580D01*
X108833333Y-127739580D02*
X108833333Y-127406247D01*
X108833333Y-127406247D02*
X108642857Y-127406247D01*
X109261905Y-127834819D02*
X109261905Y-126834819D01*
X109261905Y-126834819D02*
X109642857Y-126834819D01*
X109642857Y-126834819D02*
X109738095Y-126882438D01*
X109738095Y-126882438D02*
X109785714Y-126930057D01*
X109785714Y-126930057D02*
X109833333Y-127025295D01*
X109833333Y-127025295D02*
X109833333Y-127168152D01*
X109833333Y-127168152D02*
X109785714Y-127263390D01*
X109785714Y-127263390D02*
X109738095Y-127311009D01*
X109738095Y-127311009D02*
X109642857Y-127358628D01*
X109642857Y-127358628D02*
X109261905Y-127358628D01*
X110690476Y-127168152D02*
X110690476Y-127834819D01*
X110452381Y-126787200D02*
X110214286Y-127501485D01*
X110214286Y-127501485D02*
X110833333Y-127501485D01*
X111738095Y-127834819D02*
X111166667Y-127834819D01*
X111452381Y-127834819D02*
X111452381Y-126834819D01*
X111452381Y-126834819D02*
X111357143Y-126977676D01*
X111357143Y-126977676D02*
X111261905Y-127072914D01*
X111261905Y-127072914D02*
X111166667Y-127120533D01*
X86127143Y-130027200D02*
X86270000Y-130074819D01*
X86270000Y-130074819D02*
X86508095Y-130074819D01*
X86508095Y-130074819D02*
X86603333Y-130027200D01*
X86603333Y-130027200D02*
X86650952Y-129979580D01*
X86650952Y-129979580D02*
X86698571Y-129884342D01*
X86698571Y-129884342D02*
X86698571Y-129789104D01*
X86698571Y-129789104D02*
X86650952Y-129693866D01*
X86650952Y-129693866D02*
X86603333Y-129646247D01*
X86603333Y-129646247D02*
X86508095Y-129598628D01*
X86508095Y-129598628D02*
X86317619Y-129551009D01*
X86317619Y-129551009D02*
X86222381Y-129503390D01*
X86222381Y-129503390D02*
X86174762Y-129455771D01*
X86174762Y-129455771D02*
X86127143Y-129360533D01*
X86127143Y-129360533D02*
X86127143Y-129265295D01*
X86127143Y-129265295D02*
X86174762Y-129170057D01*
X86174762Y-129170057D02*
X86222381Y-129122438D01*
X86222381Y-129122438D02*
X86317619Y-129074819D01*
X86317619Y-129074819D02*
X86555714Y-129074819D01*
X86555714Y-129074819D02*
X86698571Y-129122438D01*
X87127143Y-130074819D02*
X87127143Y-129074819D01*
X87127143Y-129551009D02*
X87698571Y-129551009D01*
X87698571Y-130074819D02*
X87698571Y-129074819D01*
X88031905Y-129074819D02*
X88603333Y-129074819D01*
X88317619Y-130074819D02*
X88317619Y-129074819D01*
X89365238Y-129408152D02*
X89365238Y-130074819D01*
X89127143Y-129027200D02*
X88889048Y-129741485D01*
X88889048Y-129741485D02*
X89508095Y-129741485D01*
X90079524Y-129074819D02*
X90174762Y-129074819D01*
X90174762Y-129074819D02*
X90270000Y-129122438D01*
X90270000Y-129122438D02*
X90317619Y-129170057D01*
X90317619Y-129170057D02*
X90365238Y-129265295D01*
X90365238Y-129265295D02*
X90412857Y-129455771D01*
X90412857Y-129455771D02*
X90412857Y-129693866D01*
X90412857Y-129693866D02*
X90365238Y-129884342D01*
X90365238Y-129884342D02*
X90317619Y-129979580D01*
X90317619Y-129979580D02*
X90270000Y-130027200D01*
X90270000Y-130027200D02*
X90174762Y-130074819D01*
X90174762Y-130074819D02*
X90079524Y-130074819D01*
X90079524Y-130074819D02*
X89984286Y-130027200D01*
X89984286Y-130027200D02*
X89936667Y-129979580D01*
X89936667Y-129979580D02*
X89889048Y-129884342D01*
X89889048Y-129884342D02*
X89841429Y-129693866D01*
X89841429Y-129693866D02*
X89841429Y-129455771D01*
X89841429Y-129455771D02*
X89889048Y-129265295D01*
X89889048Y-129265295D02*
X89936667Y-129170057D01*
X89936667Y-129170057D02*
X89984286Y-129122438D01*
X89984286Y-129122438D02*
X90079524Y-129074819D01*
X107074819Y-146809523D02*
X107789104Y-146809523D01*
X107789104Y-146809523D02*
X107931961Y-146857142D01*
X107931961Y-146857142D02*
X108027200Y-146952380D01*
X108027200Y-146952380D02*
X108074819Y-147095237D01*
X108074819Y-147095237D02*
X108074819Y-147190475D01*
X108170057Y-146571428D02*
X108170057Y-145809523D01*
X108074819Y-145571427D02*
X107074819Y-145571427D01*
X107074819Y-145571427D02*
X107074819Y-145190475D01*
X107074819Y-145190475D02*
X107122438Y-145095237D01*
X107122438Y-145095237D02*
X107170057Y-145047618D01*
X107170057Y-145047618D02*
X107265295Y-144999999D01*
X107265295Y-144999999D02*
X107408152Y-144999999D01*
X107408152Y-144999999D02*
X107503390Y-145047618D01*
X107503390Y-145047618D02*
X107551009Y-145095237D01*
X107551009Y-145095237D02*
X107598628Y-145190475D01*
X107598628Y-145190475D02*
X107598628Y-145571427D01*
X107074819Y-144666665D02*
X108074819Y-144428570D01*
X108074819Y-144428570D02*
X107360533Y-144238094D01*
X107360533Y-144238094D02*
X108074819Y-144047618D01*
X108074819Y-144047618D02*
X107074819Y-143809523D01*
X108074819Y-142857142D02*
X107598628Y-143190475D01*
X108074819Y-143428570D02*
X107074819Y-143428570D01*
X107074819Y-143428570D02*
X107074819Y-143047618D01*
X107074819Y-143047618D02*
X107122438Y-142952380D01*
X107122438Y-142952380D02*
X107170057Y-142904761D01*
X107170057Y-142904761D02*
X107265295Y-142857142D01*
X107265295Y-142857142D02*
X107408152Y-142857142D01*
X107408152Y-142857142D02*
X107503390Y-142904761D01*
X107503390Y-142904761D02*
X107551009Y-142952380D01*
X107551009Y-142952380D02*
X107598628Y-143047618D01*
X107598628Y-143047618D02*
X107598628Y-143428570D01*
%TO.C,SW4*%
D11*
X87825000Y-111555000D02*
X101795000Y-111555000D01*
X87825000Y-125525000D02*
X87825000Y-111555000D01*
X101795000Y-111555000D02*
X101795000Y-125525000D01*
X101795000Y-125525000D02*
X87825000Y-125525000D01*
%TO.C,TFT1*%
X122040000Y-62620000D02*
X122040000Y-65380000D01*
X137390000Y-62620000D02*
X122040000Y-62620000D01*
X137390000Y-62620000D02*
X137390000Y-65380000D01*
X137390000Y-65380000D02*
X122040000Y-65380000D01*
X138660000Y-62620000D02*
X140040000Y-62620000D01*
X140040000Y-62620000D02*
X140040000Y-64000000D01*
%TO.C,SW3*%
X87825000Y-92195000D02*
X101795000Y-92195000D01*
X87825000Y-106165000D02*
X87825000Y-92195000D01*
X101795000Y-92195000D02*
X101795000Y-106165000D01*
X101795000Y-106165000D02*
X87825000Y-106165000D01*
%TO.C,SW2*%
X87825000Y-73055000D02*
X101795000Y-73055000D01*
X87825000Y-87025000D02*
X87825000Y-73055000D01*
X101795000Y-73055000D02*
X101795000Y-87025000D01*
X101795000Y-87025000D02*
X87825000Y-87025000D01*
%TO.C,U2*%
D12*
X127000000Y-120150000D02*
X127000000Y-142850000D01*
X127000000Y-120150000D02*
X145000000Y-120150000D01*
X127000000Y-142850000D02*
X131500000Y-142850000D01*
X131500000Y-144150000D02*
X131500000Y-142850000D01*
X131500000Y-144150000D02*
X140500000Y-144150000D01*
X140500000Y-142850000D02*
X145000000Y-142850000D01*
X140500000Y-144150000D02*
X140500000Y-142850000D01*
X145000000Y-120150000D02*
X145000000Y-142850000D01*
%TO.C,SW1*%
D11*
X87825000Y-54055000D02*
X101795000Y-54055000D01*
X87825000Y-68025000D02*
X87825000Y-54055000D01*
X101795000Y-54055000D02*
X101795000Y-68025000D01*
X101795000Y-68025000D02*
X87825000Y-68025000D01*
%TO.C,SPS30*%
X107620000Y-63620000D02*
X109000000Y-63620000D01*
X107620000Y-65000000D02*
X107620000Y-63620000D01*
X107620000Y-66270000D02*
X107620000Y-76540000D01*
X107620000Y-66270000D02*
X110380000Y-66270000D01*
X107620000Y-76540000D02*
X110380000Y-76540000D01*
X110380000Y-66270000D02*
X110380000Y-76540000D01*
%TO.C,R1*%
X117540000Y-132630000D02*
X124080000Y-132630000D01*
X117540000Y-132960000D02*
X117540000Y-132630000D01*
X117540000Y-135040000D02*
X117540000Y-135370000D01*
X117540000Y-135370000D02*
X124080000Y-135370000D01*
X124080000Y-132630000D02*
X124080000Y-132960000D01*
X124080000Y-135370000D02*
X124080000Y-135040000D01*
%TO.C,JP1*%
D10*
X106700000Y-112500000D02*
X117000000Y-112500000D01*
%TO.C,SGP41*%
D11*
X108120000Y-123730000D02*
X108120000Y-113460000D01*
X110880000Y-113460000D02*
X108120000Y-113460000D01*
X110880000Y-123730000D02*
X108120000Y-123730000D01*
X110880000Y-123730000D02*
X110880000Y-113460000D01*
X110880000Y-125000000D02*
X110880000Y-126380000D01*
X110880000Y-126380000D02*
X109500000Y-126380000D01*
%TO.C,SHT40*%
X86890000Y-130620000D02*
X88270000Y-130620000D01*
X86890000Y-132000000D02*
X86890000Y-130620000D01*
X86890000Y-133270000D02*
X86890000Y-141000000D01*
X86890000Y-133270000D02*
X89650000Y-133270000D01*
X86890000Y-141000000D02*
X89650000Y-141000000D01*
X89650000Y-133270000D02*
X89650000Y-141000000D01*
%TO.C,J_PWR*%
X108620000Y-146380000D02*
X108620000Y-145000000D01*
X110000000Y-146380000D02*
X108620000Y-146380000D01*
X111270000Y-143620000D02*
X119000000Y-143620000D01*
X111270000Y-146380000D02*
X111270000Y-143620000D01*
X111270000Y-146380000D02*
X119000000Y-146380000D01*
X119000000Y-146380000D02*
X119000000Y-143620000D01*
%TD*%
M02*
