M48
; DRILL file KiCad 10.0.6 date 2026-10-02T15:10:09
; FORMAT={-:-/ absolute / metric / decimal}
; #@! TF.CreationDate,2026-10-02T15:10:09-04:00
; #@! TF.GenerationSoftware,Kicad,Pcbnew,10.0.6
; #@! TF.FileFunction,Plated,1,2,PTH
FMAT,2
METRIC
; #@! TA.AperFunction,Plated,PTH,ViaDrill
T1C0.500
; #@! TA.AperFunction,Plated,PTH,ComponentDrill
T2C0.800
; #@! TA.AperFunction,Plated,PTH,ComponentDrill
T3C0.840
; #@! TA.AperFunction,Plated,PTH,ComponentDrill
T4C1.000
; #@! TA.AperFunction,Plated,PTH,ComponentDrill
T5C1.500
%
G90
G05
T1
X117.5Y-75.5
X122.42Y-66.0
X127.5Y-66.0
X130.04Y-66.0
X132.58Y-66.0
X135.12Y-66.0
X137.66Y-66.0
X149.0Y-80.0
T2
X105.5Y-112.5
X117.0Y-134.0
X118.2Y-112.5
X124.62Y-134.0
T3
X128.38Y-123.62
X128.38Y-126.16
X128.38Y-128.7
X128.38Y-131.24
X128.38Y-133.78
X128.38Y-136.32
X128.38Y-138.86
X128.38Y-141.4
X143.62Y-123.62
X143.62Y-126.16
X143.62Y-128.7
X143.62Y-131.24
X143.62Y-133.78
X143.62Y-136.32
X143.62Y-138.86
X143.62Y-141.4
T4
X88.27Y-132.0
X88.27Y-134.54
X88.27Y-137.08
X88.27Y-139.62
X97.0Y-132.0
X97.0Y-134.54
X97.0Y-137.08
X97.0Y-139.62
X109.0Y-65.0
X109.0Y-67.54
X109.0Y-70.08
X109.0Y-72.62
X109.0Y-75.16
X109.5Y-114.84
X109.5Y-117.38
X109.5Y-119.92
X109.5Y-122.46
X109.5Y-125.0
X123.42Y-64.0
X125.96Y-64.0
X128.5Y-64.0
X131.04Y-64.0
X133.58Y-64.0
X136.0Y-100.0
X136.12Y-64.0
X138.66Y-64.0
X143.6Y-100.0
T5
X91.0Y-58.5
X91.0Y-77.5
X91.0Y-96.64
X91.0Y-116.0
X97.35Y-55.96
X97.35Y-74.96
X97.35Y-94.1
X97.35Y-113.46
M30
